<?xml version="1.0" encoding="UTF-8" standalone="no"?>
<!-- Generator: Adobe Illustrator 16.0.0, SVG Export Plug-In . SVG Version: 6.00 Build 0)  -->

<svg
   xmlns:dc="http://purl.org/dc/elements/1.1/"
   xmlns:cc="http://creativecommons.org/ns#"
   xmlns:rdf="http://www.w3.org/1999/02/22-rdf-syntax-ns#"
   xmlns:svg="http://www.w3.org/2000/svg"
   xmlns="http://www.w3.org/2000/svg"
   xmlns:sodipodi="http://sodipodi.sourceforge.net/DTD/sodipodi-0.dtd"
   xmlns:inkscape="http://www.inkscape.org/namespaces/inkscape"
   version="1.1"
   id="Capa_1"
   x="0px"
   y="0px"
   width="150"
   height="150"
   viewBox="0 0 150 150"
   xml:space="preserve"
   inkscape:version="0.48.4 r9939"
   sodipodi:docname="distributed.svg"><metadata
     id="metadata54"><rdf:RDF><cc:Work
         rdf:about=""><dc:format>image/svg+xml</dc:format><dc:type
           rdf:resource="http://purl.org/dc/dcmitype/StillImage" /></cc:Work></rdf:RDF></metadata><defs
     id="defs52" /><sodipodi:namedview
     pagecolor="#ffffff"
     bordercolor="#666666"
     borderopacity="1"
     objecttolerance="10"
     gridtolerance="10"
     guidetolerance="10"
     inkscape:pageopacity="0"
     inkscape:pageshadow="2"
     inkscape:window-width="1366"
     inkscape:window-height="702"
     id="namedview50"
     showgrid="false"
     inkscape:zoom="1.3098381"
     inkscape:cx="-241.42245"
     inkscape:cy="26.091593"
     inkscape:window-x="0"
     inkscape:window-y="27"
     inkscape:window-maximized="1"
     inkscape:current-layer="Capa_1" /><g
     transform="matrix(3.1928974,0,0,3.1928974,0,-1.8857128)"
     id="g3025"><path
       inkscape:connector-curvature="0"
       id="path3027"
       d="m 17.567,15.938 -2.859,-2.702 c 0.333,-0.605 0.539,-1.29 0.539,-2.029 0,-2.342 -1.897,-4.239 -4.24,-4.239 -2.343,0 -4.243,1.896 -4.243,4.239 0,2.343 1.9,4.241 4.243,4.241 0.826,0 1.59,-0.246 2.242,-0.654 l 2.855,2.699 c 0.432,-0.571 0.919,-1.094 1.463,-1.555 z" /><path
       inkscape:connector-curvature="0"
       id="path3029"
       d="m 29.66,15.6 3.799,-6.393 c 0.374,0.107 0.762,0.184 1.169,0.184 2.347,0 4.244,-1.898 4.244,-4.241 0,-2.342 -1.897,-4.239 -4.244,-4.239 -2.343,0 -4.239,1.896 -4.239,4.239 0,1.163 0.469,2.214 1.227,2.981 l -3.787,6.375 c 0.651,0.295 1.265,0.663 1.831,1.094 z" /><path
       inkscape:connector-curvature="0"
       id="path3031"
       d="m 42.762,20.952 c -1.824,0 -3.369,1.159 -3.968,2.775 l -5.278,-0.521 c 0,0.04 0.006,0.078 0.006,0.117 0,0.688 -0.076,1.36 -0.213,2.009 l 5.276,0.521 c 0.319,2.024 2.062,3.576 4.177,3.576 2.342,0 4.238,-1.896 4.238,-4.238 0,-2.341 -1.896,-4.239 -4.238,-4.239 z" /><path
       inkscape:connector-curvature="0"
       id="path3033"
       d="m 28.197,37.624 -1.18,-5.156 c -0.666,0.232 -1.359,0.398 -2.082,0.481 l 1.182,5.157 c -1.355,0.709 -2.29,2.11 -2.29,3.746 0,2.342 1.896,4.237 4.243,4.237 2.342,0 4.238,-1.896 4.238,-4.237 0.003,-2.299 -1.829,-4.16 -4.111,-4.228 z" /><path
       inkscape:connector-curvature="0"
       id="path3035"
       d="m 14.357,25.37 -6.57,2.201 C 7.029,26.413 5.724,25.645 4.239,25.645 1.896,25.645 0,27.542 0,29.884 c 0,2.345 1.896,4.242 4.239,4.242 2.341,0 4.242,-1.897 4.242,-4.242 0,-0.098 -0.021,-0.188 -0.029,-0.284 l 6.591,-2.207 C 14.746,26.752 14.51,26.077 14.357,25.37 z" /><circle
       d="m 31.101,23.323 c 0,4.015662 -3.255338,7.271 -7.271,7.271 -4.015662,0 -7.271,-3.255338 -7.271,-7.271 0,-4.015662 3.255338,-7.271 7.271,-7.271 4.015662,0 7.271,3.255338 7.271,7.271 z"
       sodipodi:ry="7.2709999"
       sodipodi:rx="7.2709999"
       sodipodi:cy="23.323"
       sodipodi:cx="23.83"
       id="circle3037"
       r="7.2709999"
       cy="23.323"
       cx="23.83"
       style="fill:#ff1000;fill-opacity:1" /><g
       id="g3039" /><g
       id="g3041" /><g
       id="g3043" /><g
       id="g3045" /><g
       id="g3047" /><g
       id="g3049" /><g
       id="g3051" /><g
       id="g3053" /><g
       id="g3055" /><g
       id="g3057" /><g
       id="g3059" /><g
       id="g3061" /><g
       id="g3063" /><g
       id="g3065" /><g
       id="g3067" /></g></svg>