<?xml version="1.0" encoding="UTF-8" standalone="no"?>
<!-- Generator: Adobe Illustrator 16.0.0, SVG Export Plug-In . SVG Version: 6.00 Build 0)  -->

<svg
   xmlns:dc="http://purl.org/dc/elements/1.1/"
   xmlns:cc="http://creativecommons.org/ns#"
   xmlns:rdf="http://www.w3.org/1999/02/22-rdf-syntax-ns#"
   xmlns:svg="http://www.w3.org/2000/svg"
   xmlns="http://www.w3.org/2000/svg"
   xmlns:sodipodi="http://sodipodi.sourceforge.net/DTD/sodipodi-0.dtd"
   xmlns:inkscape="http://www.inkscape.org/namespaces/inkscape"
   version="1.1"
   id="Capa_1"
   x="0px"
   y="0px"
   width="150"
   height="150"
   viewBox="0 0 150 150"
   xml:space="preserve"
   inkscape:version="0.48.4 r9939"
   sodipodi:docname="grow.svg"><metadata
     id="metadata51"><rdf:RDF><cc:Work
         rdf:about=""><dc:format>image/svg+xml</dc:format><dc:type
           rdf:resource="http://purl.org/dc/dcmitype/StillImage" /></cc:Work></rdf:RDF></metadata><defs
     id="defs49" /><sodipodi:namedview
     pagecolor="#ffffff"
     bordercolor="#666666"
     borderopacity="1"
     objecttolerance="10"
     gridtolerance="10"
     guidetolerance="10"
     inkscape:pageopacity="0"
     inkscape:pageshadow="2"
     inkscape:window-width="1366"
     inkscape:window-height="702"
     id="namedview47"
     showgrid="false"
     inkscape:zoom="1.2511044"
     inkscape:cx="-36.871815"
     inkscape:cy="40.182617"
     inkscape:window-x="0"
     inkscape:window-y="27"
     inkscape:window-maximized="1"
     inkscape:current-layer="Capa_1" /><g
     id="g3002"
     transform="matrix(1.5475581,0,0,1.5475581,2.0084266,0.90360767)"><path
       style="fill:#ff1000;fill-opacity:1"
       d="M 94.171,20.444 82.449,10.222 70.728,0 59.005,10.222 47.283,20.444 H 60.111 C 55.792,46.975 31.278,67.613 3.382,63.225 2.155,63.034 1.658,64.685 2.864,65.104 37.58,77.186 77.575,57.334 83.361,20.444 h 10.81 z"
       id="path5"
       inkscape:connector-curvature="0" /><path
       d="m 68.171,54.722 c -3.604,3.332 -7.635,6.235 -12,8.663 v 32.958 h 12 V 54.722 z"
       id="path7"
       inkscape:connector-curvature="0" /><path
       d="m 38.171,96.343 h 12 V 66.324 c -3.813,1.625 -7.827,2.906 -12,3.802 v 26.217 z"
       id="path9"
       inkscape:connector-curvature="0" /><path
       d="m 74.171,96.343 h 12 V 23.444 h -0.303 c -1.883,9.304 -5.971,17.725 -11.697,24.837 v 48.062 z"
       id="path11"
       inkscape:connector-curvature="0" /><path
       d="m 14.171,70.926 c -4.075,-0.596 -8.088,-1.552 -12,-2.895 v 28.312 h 12 V 70.926 z"
       id="path13"
       inkscape:connector-curvature="0" /><path
       d="m 20.171,96.343 h 12 V 71.135 c -2.729,0.331 -5.51,0.505 -8.335,0.505 -1.226,0 -2.447,-0.046 -3.665,-0.112 v 24.815 z"
       id="path15"
       inkscape:connector-curvature="0" /><g
       id="g17" /><g
       id="g19" /><g
       id="g21" /><g
       id="g23" /><g
       id="g25" /><g
       id="g27" /><g
       id="g29" /><g
       id="g31" /><g
       id="g33" /><g
       id="g35" /><g
       id="g37" /><g
       id="g39" /><g
       id="g41" /><g
       id="g43" /><g
       id="g45" /></g></svg>